<svg width="925" height="420" viewBox="0 0 925 420" fill="none" xmlns="http://www.w3.org/2000/svg">
<path d="M71.5 93.56C87.78 93.56 102.007 96.7867 114.18 103.24C126.353 109.693 135.74 118.787 142.34 130.52C149.087 142.107 152.46 155.527 152.46 170.78C152.46 185.887 149.087 199.307 142.34 211.04C135.74 222.773 126.28 231.867 113.96 238.32C101.787 244.773 87.6333 248 71.5 248L13.64 248L13.64 93.56L71.5 93.56ZM69.08 215.44C83.3067 215.44 94.38 211.553 102.3 203.78C110.22 196.007 114.18 185.007 114.18 170.78C114.18 156.553 110.22 145.48 102.3 137.56C94.38 129.64 83.3067 125.68 69.08 125.68L51.26 125.68L51.26 215.44L69.08 215.44ZM289.204 184.64C289.204 188.16 288.984 191.827 288.544 195.64L203.404 195.64C203.99 203.267 206.41 209.133 210.664 213.24C215.064 217.2 220.417 219.18 226.724 219.18C236.11 219.18 242.637 215.22 246.304 207.3L286.344 207.3C284.29 215.367 280.55 222.627 275.124 229.08C269.844 235.533 263.17 240.593 255.104 244.26C247.037 247.927 238.017 249.76 228.044 249.76C216.017 249.76 205.31 247.193 195.924 242.06C186.537 236.927 179.204 229.593 173.924 220.06C168.644 210.527 166.004 199.38 166.004 186.62C166.004 173.86 168.57 162.713 173.704 153.18C178.984 143.647 186.317 136.313 195.704 131.18C205.09 126.047 215.87 123.48 228.044 123.48C239.924 123.48 250.484 125.973 259.724 130.96C268.964 135.947 276.15 143.06 281.284 152.3C286.564 161.54 289.204 172.32 289.204 184.64ZM250.704 174.74C250.704 168.287 248.504 163.153 244.104 159.34C239.704 155.527 234.204 153.62 227.604 153.62C221.297 153.62 215.944 155.453 211.544 159.12C207.29 162.787 204.65 167.993 203.624 174.74L250.704 174.74ZM364.27 212.8L390.89 125.24L430.93 125.24L387.37 248L340.95 248L297.39 125.24L337.65 125.24L364.27 212.8Z" fill="black"/>
<path d="M593.26 236.667C596.927 230.947 601.987 226.327 608.44 222.807C614.893 219.287 622.447 217.527 631.1 217.527C641.22 217.527 650.387 220.093 658.6 225.227C666.813 230.36 673.267 237.693 677.96 247.227C682.8 256.76 685.22 267.833 685.22 280.447C685.22 293.06 682.8 304.207 677.96 313.887C673.267 323.42 666.813 330.827 658.6 336.107C650.387 341.24 641.22 343.807 631.1 343.807C622.593 343.807 615.04 342.047 608.44 338.527C601.987 335.007 596.927 330.46 593.26 324.887L593.26 400.567L555.64 400.567L555.64 219.287L593.26 219.287L593.26 236.667ZM646.94 280.447C646.94 271.06 644.3 263.727 639.02 258.447C633.887 253.02 627.507 250.307 619.88 250.307C612.4 250.307 606.02 253.02 600.74 258.447C595.607 263.873 593.04 271.28 593.04 280.667C593.04 290.053 595.607 297.46 600.74 302.887C606.02 308.313 612.4 311.027 619.88 311.027C627.36 311.027 633.74 308.313 639.02 302.887C644.3 297.313 646.94 289.833 646.94 280.447ZM760.836 343.807C748.81 343.807 737.956 341.24 728.276 336.107C718.743 330.973 711.19 323.64 705.616 314.107C700.19 304.573 697.476 293.427 697.476 280.667C697.476 268.053 700.263 256.98 705.836 247.447C711.41 237.767 719.036 230.36 728.716 225.227C738.396 220.093 749.25 217.527 761.276 217.527C773.303 217.527 784.156 220.093 793.836 225.227C803.516 230.36 811.143 237.767 816.716 247.447C822.29 256.98 825.076 268.053 825.076 280.667C825.076 293.28 822.216 304.427 816.496 314.107C810.923 323.64 803.223 330.973 793.396 336.107C783.716 341.24 772.863 343.807 760.836 343.807ZM760.836 311.247C768.023 311.247 774.11 308.607 779.096 303.327C784.23 298.047 786.796 290.493 786.796 280.667C786.796 270.84 784.303 263.287 779.316 258.007C774.476 252.727 768.463 250.087 761.276 250.087C753.943 250.087 747.856 252.727 743.016 258.007C738.176 263.14 735.756 270.693 735.756 280.667C735.756 290.493 738.103 298.047 742.796 303.327C747.636 308.607 753.65 311.247 760.836 311.247ZM913.455 310.147L913.455 342.047L894.315 342.047C880.675 342.047 870.041 338.747 862.415 332.147C854.788 325.4 850.975 314.473 850.975 299.367L850.975 250.527L836.015 250.527L836.015 219.287L850.975 219.287L850.975 189.367L888.595 189.367L888.595 219.287L913.235 219.287L913.235 250.527L888.595 250.527L888.595 299.807C888.595 303.473 889.475 306.113 891.235 307.727C892.995 309.34 895.928 310.147 900.035 310.147L913.455 310.147Z" fill="#DC4A28"/>
<path d="M478.52 324.196C467.227 324.196 457.107 322.362 448.16 318.696C439.213 315.029 432.027 309.602 426.6 302.416C421.32 295.229 418.533 286.576 418.24 276.456L458.28 276.456C458.867 282.176 460.847 286.576 464.22 289.656C467.593 292.589 471.993 294.056 477.42 294.056C482.993 294.056 487.393 292.809 490.62 290.316C493.847 287.676 495.46 284.082 495.46 279.536C495.46 275.722 494.14 272.569 491.5 270.076C489.007 267.582 485.853 265.529 482.04 263.916C478.373 262.302 473.093 260.469 466.2 258.416C456.227 255.336 448.087 252.256 441.78 249.176C435.473 246.096 430.047 241.549 425.5 235.536C420.953 229.522 418.68 221.676 418.68 211.996C418.68 197.622 423.887 186.402 434.3 178.336C444.713 170.122 458.28 166.016 475 166.016C492.013 166.016 505.727 170.122 516.14 178.336C526.553 186.402 532.127 197.696 532.86 212.216L492.16 212.216C491.867 207.229 490.033 203.342 486.66 200.556C483.287 197.622 478.96 196.156 473.68 196.156C469.133 196.156 465.467 197.402 462.68 199.896C459.893 202.242 458.5 205.689 458.5 210.236C458.5 215.222 460.847 219.109 465.54 221.896C470.233 224.682 477.567 227.689 487.54 230.916C497.513 234.289 505.58 237.516 511.74 240.596C518.047 243.676 523.473 248.149 528.02 254.016C532.567 259.882 534.84 267.436 534.84 276.676C534.84 285.476 532.567 293.469 528.02 300.656C523.62 307.842 517.167 313.562 508.66 317.816C500.153 322.069 490.107 324.196 478.52 324.196Z" fill="#D9993C"/>
<path d="M174.302 56.3211C178.334 60.6281 181.033 65.1566 182.397 69.9064C183.798 74.622 183.824 79.2215 182.473 83.7049C181.193 88.1907 178.637 92.2276 174.804 95.8156C171.702 98.7202 168.306 100.872 164.616 102.272C160.961 103.708 157.339 104.119 153.751 103.506C150.234 102.894 147.125 101.147 144.426 98.2635C142.614 96.3289 141.494 94.3641 141.065 92.369C140.669 90.4104 140.96 88.5628 141.937 86.8262C139.557 87.1369 137.213 86.8651 134.907 86.0109C132.637 85.1225 130.613 83.7292 128.836 81.8312C126.308 79.1301 125.112 76.2431 125.248 73.17C125.455 70.0992 126.964 67.2483 129.775 64.617C132.44 62.1225 135.452 60.3293 138.814 59.2373C142.211 58.1112 145.527 57.849 148.762 58.4509C151.997 59.0527 154.742 60.5581 156.997 62.9672C159.867 66.0332 160.72 69.1389 159.555 72.2842L162.918 70.0604L169.992 77.616L153.994 88.0726C153.235 88.5782 152.599 89.0702 152.088 89.5486C150.482 91.0521 150.346 92.5157 151.678 93.9392C153.319 95.6912 155.679 95.9812 158.76 94.8093C161.911 93.6397 164.947 91.688 167.867 88.9543C172.065 85.0245 174.103 80.6168 173.981 75.7311C173.893 70.8819 171.611 66.0665 167.134 61.2849C163.307 57.1968 158.836 54.3964 153.721 52.8836C148.64 51.4073 143.496 51.3262 138.288 52.6403C133.117 53.9202 128.487 56.4738 124.399 60.301C119.982 64.4358 117.747 68.9255 117.694 73.77C117.674 78.6511 119.834 83.4094 124.174 88.045C127.557 91.6585 131.238 94.2738 135.218 95.8906L130.634 102.956C125.716 100.848 121.172 97.5679 117.003 93.1148C113.107 88.9537 110.476 84.5337 109.109 79.8545C107.777 75.2119 107.785 70.6489 109.136 66.1655C110.486 61.682 113.133 57.5951 117.075 53.9045C122.586 48.7446 128.782 45.3759 135.661 43.7985C142.577 42.187 149.413 42.4653 156.169 44.6336C162.995 46.8041 169.039 50.7 174.302 56.3211ZM138.441 78.5926C139.398 79.6146 140.597 80.2732 142.037 80.5683C143.512 80.8999 145 80.8428 146.5 80.397C148.071 79.9535 149.459 79.1679 150.663 78.0403C151.904 76.8784 152.584 75.5919 152.701 74.1808C152.855 72.7355 152.368 71.4106 151.24 70.2061C149.736 68.6001 147.796 67.9171 145.418 68.1571C143.04 68.3971 140.902 69.4055 139.004 71.1825C137.799 72.3101 137.122 73.5259 136.973 74.8299C136.824 76.1338 137.313 77.3881 138.441 78.5926Z" fill="#046AAE"/>
</svg>
