<svg width="1310" height="1310" viewBox="0 0 1310 1310" fill="none" xmlns="http://www.w3.org/2000/svg">
<g filter="url(#filter0_ddddd_103_28)">
<rect x="143" y="42" width="1024" height="1024" rx="20" fill="#D9D9D9"/>
<path d="M263.5 418.56C279.78 418.56 294.007 421.787 306.18 428.24C318.353 434.693 327.74 443.787 334.34 455.52C341.087 467.107 344.46 480.527 344.46 495.78C344.46 510.887 341.087 524.307 334.34 536.04C327.74 547.773 318.28 556.867 305.96 563.32C293.787 569.773 279.633 573 263.5 573L205.64 573L205.64 418.56L263.5 418.56ZM261.08 540.44C275.307 540.44 286.38 536.553 294.3 528.78C302.22 521.007 306.18 510.007 306.18 495.78C306.18 481.553 302.22 470.48 294.3 462.56C286.38 454.64 275.307 450.68 261.08 450.68L243.26 450.68L243.26 540.44L261.08 540.44ZM481.204 509.64C481.204 513.16 480.984 516.827 480.544 520.64L395.404 520.64C395.99 528.267 398.41 534.133 402.664 538.24C407.064 542.2 412.417 544.18 418.724 544.18C428.11 544.18 434.637 540.22 438.304 532.3L478.344 532.3C476.29 540.367 472.55 547.627 467.124 554.08C461.844 560.533 455.17 565.593 447.104 569.26C439.037 572.927 430.017 574.76 420.044 574.76C408.017 574.76 397.31 572.193 387.924 567.06C378.537 561.927 371.204 554.593 365.924 545.06C360.644 535.527 358.004 524.38 358.004 511.62C358.004 498.86 360.57 487.713 365.704 478.18C370.984 468.647 378.317 461.313 387.704 456.18C397.09 451.047 407.87 448.48 420.044 448.48C431.924 448.48 442.484 450.973 451.724 455.96C460.964 460.947 468.15 468.06 473.284 477.3C478.564 486.54 481.204 497.32 481.204 509.64ZM442.704 499.74C442.704 493.287 440.504 488.153 436.104 484.34C431.704 480.527 426.204 478.62 419.604 478.62C413.297 478.62 407.944 480.453 403.544 484.12C399.29 487.787 396.65 492.993 395.624 499.74L442.704 499.74ZM556.27 537.8L582.89 450.24L622.93 450.24L579.37 573L532.95 573L489.39 450.24L529.65 450.24L556.27 537.8Z" fill="black"/>
<path d="M785.26 561.667C788.927 555.947 793.987 551.327 800.44 547.807C806.893 544.287 814.447 542.527 823.1 542.527C833.22 542.527 842.387 545.093 850.6 550.227C858.813 555.36 865.267 562.693 869.96 572.227C874.8 581.76 877.22 592.833 877.22 605.447C877.22 618.06 874.8 629.207 869.96 638.887C865.267 648.42 858.813 655.827 850.6 661.107C842.387 666.24 833.22 668.807 823.1 668.807C814.593 668.807 807.04 667.047 800.44 663.527C793.987 660.007 788.927 655.46 785.26 649.887L785.26 725.567L747.64 725.567L747.64 544.287L785.26 544.287L785.26 561.667ZM838.94 605.447C838.94 596.06 836.3 588.727 831.02 583.447C825.887 578.02 819.507 575.307 811.88 575.307C804.4 575.307 798.02 578.02 792.74 583.447C787.607 588.873 785.04 596.28 785.04 605.667C785.04 615.053 787.607 622.46 792.74 627.887C798.02 633.313 804.4 636.027 811.88 636.027C819.36 636.027 825.74 633.313 831.02 627.887C836.3 622.313 838.94 614.833 838.94 605.447ZM952.836 668.807C940.81 668.807 929.956 666.24 920.276 661.107C910.743 655.973 903.19 648.64 897.616 639.107C892.19 629.573 889.476 618.427 889.476 605.667C889.476 593.053 892.263 581.98 897.836 572.447C903.41 562.767 911.036 555.36 920.716 550.227C930.396 545.093 941.25 542.527 953.276 542.527C965.303 542.527 976.156 545.093 985.836 550.227C995.516 555.36 1003.14 562.767 1008.72 572.447C1014.29 581.98 1017.08 593.053 1017.08 605.667C1017.08 618.28 1014.22 629.427 1008.5 639.107C1002.92 648.64 995.223 655.973 985.396 661.107C975.716 666.24 964.863 668.807 952.836 668.807ZM952.836 636.247C960.023 636.247 966.11 633.607 971.096 628.327C976.23 623.047 978.796 615.493 978.796 605.667C978.796 595.84 976.303 588.287 971.316 583.007C966.476 577.727 960.463 575.087 953.276 575.087C945.943 575.087 939.856 577.727 935.016 583.007C930.176 588.14 927.756 595.693 927.756 605.667C927.756 615.493 930.103 623.047 934.796 628.327C939.636 633.607 945.65 636.247 952.836 636.247ZM1105.45 635.147L1105.45 667.047L1086.31 667.047C1072.67 667.047 1062.04 663.747 1054.41 657.147C1046.79 650.4 1042.97 639.473 1042.97 624.367L1042.97 575.527L1028.01 575.527L1028.01 544.287L1042.97 544.287L1042.97 514.367L1080.59 514.367L1080.59 544.287L1105.23 544.287L1105.23 575.527L1080.59 575.527L1080.59 624.807C1080.59 628.473 1081.47 631.113 1083.23 632.727C1084.99 634.34 1087.93 635.147 1092.03 635.147L1105.45 635.147Z" fill="#DC4A28"/>
<path d="M670.52 649.196C659.227 649.196 649.107 647.362 640.16 643.696C631.213 640.029 624.027 634.602 618.6 627.416C613.32 620.229 610.533 611.576 610.24 601.456L650.28 601.456C650.867 607.176 652.847 611.576 656.22 614.656C659.593 617.589 663.993 619.056 669.42 619.056C674.993 619.056 679.393 617.809 682.62 615.316C685.847 612.676 687.46 609.082 687.46 604.536C687.46 600.722 686.14 597.569 683.5 595.076C681.007 592.582 677.853 590.529 674.04 588.916C670.373 587.302 665.093 585.469 658.2 583.416C648.227 580.336 640.087 577.256 633.78 574.176C627.473 571.096 622.047 566.549 617.5 560.536C612.953 554.522 610.68 546.676 610.68 536.996C610.68 522.622 615.887 511.402 626.3 503.336C636.713 495.122 650.28 491.016 667 491.016C684.013 491.016 697.727 495.122 708.14 503.336C718.553 511.402 724.127 522.696 724.86 537.216L684.16 537.216C683.867 532.229 682.033 528.342 678.66 525.556C675.287 522.622 670.96 521.156 665.68 521.156C661.133 521.156 657.467 522.402 654.68 524.896C651.893 527.242 650.5 530.689 650.5 535.236C650.5 540.222 652.847 544.109 657.54 546.896C662.233 549.682 669.567 552.689 679.54 555.916C689.513 559.289 697.58 562.516 703.74 565.596C710.047 568.676 715.473 573.149 720.02 579.016C724.567 584.882 726.84 592.436 726.84 601.676C726.84 610.476 724.567 618.469 720.02 625.656C715.62 632.842 709.167 638.562 700.66 642.816C692.153 647.069 682.107 649.196 670.52 649.196Z" fill="#D9993C"/>
<path d="M366.302 381.321C370.334 385.628 373.033 390.157 374.397 394.906C375.798 399.622 375.824 404.221 374.473 408.705C373.193 413.191 370.637 417.228 366.804 420.816C363.702 423.72 360.306 425.872 356.616 427.272C352.961 428.708 349.339 429.119 345.751 428.506C342.234 427.894 339.125 426.147 336.426 423.263C334.614 421.329 333.494 419.364 333.065 417.369C332.669 415.41 332.96 413.563 333.937 411.826C331.557 412.137 329.213 411.865 326.907 411.011C324.637 410.122 322.613 408.729 320.836 406.831C318.308 404.13 317.112 401.243 317.248 398.17C317.455 395.099 318.964 392.248 321.775 389.617C324.44 387.123 327.452 385.329 330.814 384.237C334.211 383.111 337.527 382.849 340.762 383.451C343.997 384.053 346.742 385.558 348.997 387.967C351.867 391.033 352.72 394.139 351.555 397.284L354.918 395.06L361.992 402.616L345.994 413.073C345.235 413.578 344.599 414.07 344.088 414.549C342.482 416.052 342.346 417.516 343.678 418.939C345.319 420.691 347.679 420.981 350.76 419.809C353.911 418.64 356.947 416.688 359.867 413.954C364.065 410.025 366.103 405.617 365.981 400.731C365.893 395.882 363.611 391.066 359.134 386.285C355.307 382.197 350.836 379.396 345.721 377.884C340.64 376.407 335.496 376.326 330.288 377.64C325.117 378.92 320.487 381.474 316.399 385.301C311.982 389.436 309.747 393.925 309.694 398.77C309.674 403.651 311.834 408.409 316.174 413.045C319.557 416.659 323.238 419.274 327.218 420.891L322.634 427.956C317.716 425.848 313.172 422.568 309.003 418.115C305.107 413.954 302.476 409.534 301.109 404.855C299.777 400.212 299.785 395.649 301.136 391.165C302.486 386.682 305.133 382.595 309.075 378.905C314.586 373.745 320.782 370.376 327.661 368.799C334.577 367.187 341.413 367.465 348.169 369.634C354.995 371.804 361.039 375.7 366.302 381.321ZM330.441 403.593C331.398 404.615 332.597 405.273 334.037 405.568C335.512 405.9 337 405.843 338.5 405.397C340.071 404.953 341.459 404.168 342.663 403.04C343.904 401.878 344.584 400.592 344.701 399.181C344.855 397.736 344.368 396.411 343.24 395.206C341.736 393.6 339.796 392.917 337.418 393.157C335.04 393.397 332.902 394.406 331.004 396.182C329.799 397.31 329.122 398.526 328.973 399.83C328.824 401.134 329.313 402.388 330.441 403.593Z" fill="#046AAE"/>
</g>
<defs>
<filter id="filter0_ddddd_103_28" x="0" y="0" width="1310" height="1310" filterUnits="userSpaceOnUse" color-interpolation-filters="sRGB">
<feFlood flood-opacity="0" result="BackgroundImageFix"/>
<feColorMatrix in="SourceAlpha" type="matrix" values="0 0 0 0 0 0 0 0 0 0 0 0 0 0 0 0 0 0 127 0" result="hardAlpha"/>
<feOffset dy="12.8621"/>
<feGaussianBlur stdDeviation="2.45595"/>
<feColorMatrix type="matrix" values="0 0 0 0 0 0 0 0 0 0 0 0 0 0 0 0 0 0 0.22 0"/>
<feBlend mode="normal" in2="BackgroundImageFix" result="effect1_dropShadow_103_28"/>
<feColorMatrix in="SourceAlpha" type="matrix" values="0 0 0 0 0 0 0 0 0 0 0 0 0 0 0 0 0 0 127 0" result="hardAlpha"/>
<feOffset dy="30.2966"/>
<feGaussianBlur stdDeviation="6.21128"/>
<feColorMatrix type="matrix" values="0 0 0 0 0 0 0 0 0 0 0 0 0 0 0 0 0 0 0.164287 0"/>
<feBlend mode="normal" in2="effect1_dropShadow_103_28" result="effect2_dropShadow_103_28"/>
<feColorMatrix in="SourceAlpha" type="matrix" values="0 0 0 0 0 0 0 0 0 0 0 0 0 0 0 0 0 0 127 0" result="hardAlpha"/>
<feOffset dy="52.6917"/>
<feGaussianBlur stdDeviation="12.6704"/>
<feColorMatrix type="matrix" values="0 0 0 0 0 0 0 0 0 0 0 0 0 0 0 0 0 0 0.159571 0"/>
<feBlend mode="normal" in2="effect2_dropShadow_103_28" result="effect3_dropShadow_103_28"/>
<feColorMatrix in="SourceAlpha" type="matrix" values="0 0 0 0 0 0 0 0 0 0 0 0 0 0 0 0 0 0 127 0" result="hardAlpha"/>
<feOffset dy="79.2231"/>
<feGaussianBlur stdDeviation="26.0987"/>
<feColorMatrix type="matrix" values="0 0 0 0 0 0 0 0 0 0 0 0 0 0 0 0 0 0 0.15099 0"/>
<feBlend mode="normal" in2="effect3_dropShadow_103_28" result="effect4_dropShadow_103_28"/>
<feColorMatrix in="SourceAlpha" type="matrix" values="0 0 0 0 0 0 0 0 0 0 0 0 0 0 0 0 0 0 127 0" result="hardAlpha"/>
<feOffset dy="101"/>
<feGaussianBlur stdDeviation="71.5"/>
<feColorMatrix type="matrix" values="0 0 0 0 0 0 0 0 0 0 0 0 0 0 0 0 0 0 0.116569 0"/>
<feBlend mode="normal" in2="effect4_dropShadow_103_28" result="effect5_dropShadow_103_28"/>
<feBlend mode="normal" in="SourceGraphic" in2="effect5_dropShadow_103_28" result="shape"/>
</filter>
</defs>
</svg>
