<svg width="240" height="169" viewBox="0 0 240 169" fill="none" xmlns="http://www.w3.org/2000/svg">
<rect y="95.0001" width="66" height="11" rx="5.5" fill="#070707"/>
<rect x="28" y="164" width="44" height="10" rx="5" transform="rotate(-90 28 164)" fill="#070707"/>
<rect x="96" y="169" width="166" height="16" rx="8" transform="rotate(-90 96 169)" fill="#070707"/>
<rect x="221" y="98.0001" width="95" height="15" rx="7.5" transform="rotate(-90 221 98.0001)" fill="#070707"/>
<rect x="221" y="169" width="48" height="15" rx="7.5" transform="rotate(-90 221 169)" fill="#070707"/>
<rect width="184.45" height="15.9014" rx="7.95069" transform="matrix(0.733089 0.680133 -0.658646 0.752453 104.473 1.00012)" fill="#070707"/>
<rect width="100.141" height="15.9014" rx="7.95069" transform="matrix(0.733137 -0.680081 0.701001 0.713161 154.81 68.1041)" fill="#070707"/>
<path d="M63.12 151.2C60.0267 153.28 58.48 155.213 58.48 157C58.48 159.64 60.28 160.96 63.88 160.96C66.36 160.96 68.68 160.36 70.84 159.16C70.92 159.133 70.96 159.067 70.96 158.96C70.9867 158.853 70.9733 158.773 70.92 158.72L63.6 151.28C63.44 151.12 63.28 151.093 63.12 151.2ZM64.88 137.76C63.5733 137.76 62.56 138.04 61.84 138.6C61.1467 139.133 60.8 139.867 60.8 140.8C60.8 141.573 60.9867 142.28 61.36 142.92C61.7333 143.56 62.6133 144.613 64 146.08C64.16 146.24 64.32 146.253 64.48 146.12C66.32 144.893 67.5333 143.92 68.12 143.2C68.7067 142.453 69 141.653 69 140.8C69 138.773 67.6267 137.76 64.88 137.76ZM63.68 164.4C57.28 164.4 54.08 162 54.08 157.2C54.08 155.76 54.56 154.387 55.52 153.08C56.48 151.747 58.1467 150.267 60.52 148.64C60.7067 148.48 60.7333 148.333 60.6 148.2L60.44 148.04C57.8 145.373 56.48 142.96 56.48 140.8C56.48 138.853 57.2133 137.307 58.68 136.16C60.1467 134.987 62.2133 134.4 64.88 134.4C67.5733 134.4 69.6133 134.947 71 136.04C72.3867 137.133 73.08 138.653 73.08 140.6C73.08 142.013 72.6267 143.347 71.72 144.6C70.8133 145.853 69.24 147.227 67 148.72C66.92 148.747 66.88 148.813 66.88 148.92C66.88 149.027 66.9067 149.107 66.96 149.16L72.44 154.84C72.4667 154.893 72.5067 154.907 72.56 154.88C72.64 154.853 72.68 154.813 72.68 154.76V149.56C72.68 149 72.88 148.52 73.28 148.12C73.68 147.72 74.16 147.52 74.72 147.52C75.28 147.52 75.76 147.72 76.16 148.12C76.56 148.52 76.76 149 76.76 149.56V159C76.76 159.213 76.84 159.4 77 159.56L79.72 162.36C80.0133 162.653 80.0667 163 79.88 163.4C79.72 163.8 79.4267 164 79 164H78.36C76.7867 164 75.4933 163.467 74.48 162.4L74.16 162.04C74.0267 161.907 73.84 161.88 73.6 161.96C70.32 163.587 67.0133 164.4 63.68 164.4Z" fill="url(#paint0_linear_2_29)"/>
<defs>
<linearGradient id="paint0_linear_2_29" x1="66" y1="119" x2="66" y2="169" gradientUnits="userSpaceOnUse">
<stop stop-color="#FF271A"/>
<stop offset="1" stop-color="#5C4745" stop-opacity="0.72"/>
</linearGradient>
</defs>
</svg>
